<svg width="26" height="26" viewBox="0 0 26 26" fill="none" xmlns="http://www.w3.org/2000/svg">
<g clip-path="url(#clip0_56_44)">
<path d="M13 0.000854492C5.82105 0.000854492 0 5.82076 0 13.0003C0 20.1798 5.82048 25.9997 13 25.9997C20.1801 25.9997 26 20.1798 26 13.0003C26 5.82076 20.1801 0.000854492 13 0.000854492ZM13 3.88784C15.3755 3.88784 17.3004 5.81334 17.3004 8.18767C17.3004 10.5626 15.3755 12.4875 13 12.4875C10.6257 12.4875 8.70074 10.5626 8.70074 8.18767C8.70074 5.81334 10.6257 3.88784 13 3.88784ZM12.9971 22.601C10.628 22.601 8.45805 21.7381 6.78437 20.31C6.37666 19.9622 6.1414 19.4523 6.1414 18.9173C6.1414 16.5092 8.09031 14.582 10.4989 14.582H15.5022C17.9114 14.582 19.8529 16.5092 19.8529 18.9173C19.8529 19.4529 19.6188 19.9617 19.2105 20.3094C17.5374 21.7381 15.3669 22.601 12.9971 22.601Z" fill="#471100"/>
</g>
<defs>
<clipPath id="clip0_56_44">
<rect width="26" height="26" fill="white"/>
</clipPath>
</defs>
</svg>
