<?xml version="1.0" standalone="no"?>
<!DOCTYPE svg PUBLIC "-//W3C//DTD SVG 20010904//EN"
 "http://www.w3.org/TR/2001/REC-SVG-20010904/DTD/svg10.dtd">
<svg version="1.0" xmlns="http://www.w3.org/2000/svg"
 width="700.000000pt" height="700.000000pt" viewBox="0 0 700.000000 700.000000"
 preserveAspectRatio="xMidYMid meet">
<metadata>
Created by potrace 1.14, written by Peter Selinger 2001-2017
</metadata>
<g transform="translate(0.000000,700.000000) scale(0.100000,-0.100000)"
fill="#000000" stroke="none">
<path d="M2330 5767 c-3 -2 -30 -8 -60 -11 -59 -7 -154 -30 -198 -48 -15 -6
-43 -17 -62 -25 -125 -51 -257 -149 -344 -254 -74 -91 -113 -181 -132 -307
-11 -76 -13 -84 -32 -116 -35 -60 -62 -158 -63 -236 -1 -70 20 -181 42 -222
16 -31 10 -53 -26 -87 -49 -46 -65 -81 -72 -156 -7 -77 6 -113 48 -138 30 -17
31 -20 24 -63 -8 -58 9 -85 76 -120 l51 -25 -7 -45 c-3 -24 -3 -50 2 -56 4 -7
8 -16 8 -20 0 -20 70 -79 106 -88 39 -11 126 -14 159 -7 37 9 96 21 105 22 6
1 30 -5 55 -12 40 -12 71 -18 145 -28 11 -1 46 -3 78 -4 73 -1 74 -15 5 -88
-51 -53 -126 -100 -158 -99 -8 1 -60 16 -115 33 -55 18 -165 46 -244 63 -79
16 -151 36 -160 43 -9 8 -31 19 -48 26 -38 15 -86 66 -168 176 -33 44 -62 82
-65 85 -3 3 -9 12 -15 21 -12 20 -88 126 -109 152 -10 13 -29 19 -65 20 -56 2
-68 10 -75 48 -2 15 -11 41 -20 58 -19 36 -56 42 -94 15 -18 -12 -26 -13 -37
-4 -8 7 -15 18 -15 24 0 23 -44 54 -69 50 -44 -8 -62 -33 -61 -84 3 -68 2 -70
-26 -70 -14 0 -39 -8 -55 -17 -34 -20 -36 -45 -15 -135 8 -31 11 -59 8 -62 -3
-3 -19 -6 -36 -6 -112 -1 -81 -119 84 -315 58 -70 180 -277 180 -306 0 -31
127 -176 205 -234 22 -17 46 -36 53 -43 28 -26 139 -99 182 -120 182 -85 277
-108 489 -118 58 -2 121 -6 139 -9 43 -7 92 -32 92 -48 0 -7 -54 -66 -121
-130 -154 -152 -190 -170 -339 -174 -102 -2 -130 2 -274 42 -122 34 -314 20
-363 -27 -21 -20 -24 -29 -18 -64 6 -40 5 -42 -25 -48 -18 -3 -45 -15 -61 -27
-41 -29 -38 -75 8 -104 40 -25 40 -34 4 -69 -47 -45 -28 -89 47 -108 36 -9 47
-17 58 -44 8 -18 14 -43 14 -54 0 -29 34 -38 86 -25 46 11 192 12 257 1 20 -3
90 -24 155 -45 138 -46 189 -56 291 -53 99 2 156 21 346 117 206 104 273 149
443 298 76 67 156 136 177 152 112 88 300 203 337 207 26 3 27 -4 13 -102 -17
-119 -10 -196 26 -303 37 -110 128 -228 277 -361 18 -16 30 -31 28 -34 -3 -3
-56 -6 -118 -7 -62 -1 -123 -4 -135 -8 -97 -26 -272 -92 -290 -109 -30 -28
-29 -69 2 -98 26 -25 32 -49 15 -66 -6 -6 -14 -25 -20 -42 -12 -44 22 -86 68
-84 29 1 37 -7 33 -32 -9 -44 30 -77 104 -91 22 -3 54 -15 70 -25 20 -12 40
-15 60 -11 45 9 344 7 475 -3 161 -13 568 -14 610 -1 35 10 120 84 137 120 5
11 8 54 7 95 -2 70 10 149 25 160 3 3 19 22 34 42 31 42 46 46 187 52 121 6
189 14 270 33 264 62 502 194 673 372 122 129 183 237 215 386 10 43 22 59 67
89 81 54 246 228 317 336 104 158 231 427 253 541 35 171 31 280 -20 554 -3
17 -29 100 -57 185 -69 209 -108 281 -304 565 -64 93 -139 241 -152 302 -27
119 24 243 99 243 36 0 89 -47 89 -80 0 -36 47 -125 75 -144 49 -32 132 -20
175 26 28 28 58 93 65 140 13 83 -77 237 -192 326 -129 101 -262 101 -431 0
-116 -69 -226 -209 -249 -318 -15 -74 -5 -259 17 -300 4 -8 8 -17 7 -20 -1
-11 28 -91 65 -175 74 -167 111 -240 187 -363 133 -215 173 -288 214 -392 95
-244 56 -419 -169 -765 -84 -128 -121 -154 -174 -119 -49 33 -53 46 -20 66 50
30 39 60 -41 117 -58 41 -143 137 -136 155 3 7 26 18 50 25 47 11 63 33 51 65
-3 9 -30 23 -63 31 -114 31 -136 40 -175 70 -62 48 -58 69 20 89 50 13 78 43
67 73 -7 18 -27 21 -157 26 -124 5 -159 21 -164 74 -3 26 3 34 31 52 18 11 41
29 51 40 17 19 17 20 -3 40 -25 25 -32 25 -113 5 -53 -14 -73 -15 -130 -4 -91
16 -100 30 -53 75 21 19 42 35 46 35 14 0 11 36 -3 48 -7 5 -43 12 -80 15 -71
6 -156 37 -184 68 -16 18 -15 19 10 29 15 5 36 10 46 10 22 0 51 36 44 55 -7
18 -40 30 -184 66 -124 30 -186 53 -225 82 -19 15 -19 16 10 22 84 19 98 29
89 59 -12 37 -38 48 -154 61 -14 1 -52 6 -85 10 -75 8 -107 13 -170 25 -27 5
-68 12 -90 16 -175 25 -411 82 -450 108 -26 17 -89 170 -105 255 -23 124 -49
189 -113 285 -126 187 -345 322 -607 371 -44 8 -363 19 -370 12z"/>
</g>
</svg>
